<svg width="19" height="18" viewBox="0 0 19 18" fill="none" xmlns="http://www.w3.org/2000/svg">
<path fill-rule="evenodd" clip-rule="evenodd" d="M16.1764 13.4999L10.9187 3.45926C10.7245 3.08865 10.3406 2.85645 9.92222 2.85645C9.5038 2.85645 9.11996 3.08865 8.92575 3.45926L3.6675 13.4999C3.48482 13.8486 3.49775 14.2675 3.70159 14.6044C3.90544 14.9412 4.27054 15.147 4.66425 15.1469H15.1796C15.5733 15.147 15.9384 14.9412 16.1423 14.6044C16.3461 14.2675 16.3591 13.8486 16.1764 13.4999ZM9.35944 6.98785C9.35944 6.67719 9.61128 6.42535 9.92194 6.42535C10.2326 6.42535 10.4844 6.67719 10.4844 6.98785V10.3628C10.4844 10.6735 10.2326 10.9253 9.92194 10.9253C9.61128 10.9253 9.35944 10.6735 9.35944 10.3628V6.98785ZM9.93431 13.4622H9.95006C10.1734 13.4586 10.3859 13.3651 10.5394 13.2028C10.6929 13.0405 10.7745 12.8231 10.7657 12.5999C10.7476 12.1394 10.3693 11.7753 9.90844 11.7747H9.89269C9.66987 11.7788 9.45805 11.8723 9.30486 12.0341C9.15168 12.196 9.07 12.4126 9.07819 12.6353C9.09568 13.0959 9.47339 13.4607 9.93431 13.4622Z" fill="#FF3654"/>
</svg>
