<svg width="19" height="18" viewBox="0 0 19 18" fill="none" xmlns="http://www.w3.org/2000/svg">
<g clip-path="url(#clip0_4604_4413)">
<path fill-rule="evenodd" clip-rule="evenodd" d="M2.58203 9C2.58203 5.27208 5.60411 2.25 9.33203 2.25C13.0582 2.25434 16.0777 5.27388 16.082 9C16.082 12.7279 13.06 15.75 9.33203 15.75C5.60411 15.75 2.58203 12.7279 2.58203 9ZM9.37816 12.0876L13.2285 6.8625C13.3586 6.70139 13.3897 6.48179 13.3094 6.29087C13.2291 6.09996 13.0504 5.96863 12.8442 5.94902C12.638 5.92942 12.4377 6.02471 12.3228 6.19706L8.82016 10.9508L6.52741 9.11644C6.28478 8.92228 5.93069 8.96156 5.73653 9.20419C5.54237 9.44681 5.58166 9.8009 5.82428 9.99506L8.57378 12.1933C8.69398 12.2873 8.84688 12.329 8.99814 12.3091C9.1494 12.2892 9.28633 12.2094 9.37816 12.0876Z" fill="#13BD38"/>
</g>
<defs>
<clipPath id="clip0_4604_4413">
<rect width="13.5" height="13.5" fill="white" transform="translate(2.58203 2.25)"/>
</clipPath>
</defs>
</svg>
